<?xml version="1.0" encoding="utf-8"?>
<!-- Generator: Adobe Illustrator 22.0.1, SVG Export Plug-In . SVG Version: 6.00 Build 0)  -->
<svg version="1.1" id="Layer_1" xmlns="http://www.w3.org/2000/svg" xmlns:xlink="http://www.w3.org/1999/xlink" x="0px" y="0px"
	 viewBox="0 0 440.3 416.9" style="enable-background:new 0 0 440.3 416.9;" xml:space="preserve">
<g>
	<path d="M104.5,416.9c-6.6-1.1-13.1-0.8-19.6-0.9c-14.5-0.4-29.1-0.9-43.6-1.3c-11.3-0.3-22.6-0.7-33.8-1c-1,0-2.1,0-3.1-0.1
		c-3.8-0.3-4.4-0.9-4.4-4.6c0.1-9.6,0.6-19.3,1.5-28.9c0.7-6.6,0.3-13.4,0.2-20c-0.3-21.5,1.1-43.1,0.9-64.6
		c-0.2-13.7,0.1-27.3,0.2-41c0-13.7,0.2-27.3,0-41c-0.2-15.2,1-30.3,0.6-45.4c-0.9-31.5,0.5-63,0.3-94.4c0-7.3,0.2-14.6,0-21.8
		C3.5,44.9,4,38.2,4.2,31.4c0.2-4-0.1-8-0.5-11.9c-0.3-3.1-0.2-6.2-0.1-9.3C3.7,6.8,5.9,5,9.2,5.2c1.8,0.1,3.5,0.4,5.3,0.7
		c8.2,1.2,16.5,1.5,24.8,2c15.3,0.9,30.5,1.7,45.8,2.5c1.9,0.1,3.9,0,5.8,0.1c4.8,0,5.1,0.3,5.1,5c0,5.5,0.1,11,0.2,16.5
		c0.2,16.3,1.6,32.6,1.9,48.9c0.2,8.7,2.2,17.4,1.2,26.1c-0.6,6.1-0.9,12.2-0.4,18.2c1,11.6,0.2,23.2,0.8,34.7
		c0.5,9.4,0.5,18.8,1.4,28.3c0.6,6.2,0.4,12.5,0.2,18.7c-0.3,15,0.7,30,1,45c0.1,8.6,0.1,17.2,0.2,25.7c0.3,19.4,0.2,38.9,0.8,58.3
		c0.3,11,0.2,22,0.8,32.9c0.8,13.8,0.6,27.6,0.9,41.4C105.3,412.5,105.5,414.7,104.5,416.9z"/>
	<path d="M246.1,409.7c-16.8,0.4-31.7-1.7-46.6-3c-5.2-0.5-10.3-1.1-15.5-1.5c-2-0.2-3.7-0.7-5.2-2.1c-2.7-2.4-5.2-5.5-9.6-4.2
		c-0.5,0.2-1.3-0.5-2-0.9c-3.1-1.6-5.9-3.5-8.4-5.8c-5.8-5.1-12.2-9.5-18.3-14.2c-1.5-1.2-3-2.5-4.1-4.1
		c-4.3-6.2-8.6-12.5-12.8-18.7c-0.9-1.3-1.8-2.8-2.3-4.3c-2.9-8.4-5.7-16.8-7.5-25.6c-2.7-13.4-1.1-26.6,0.7-39.8
		c0.4-2.9,0.9-5.9,1.2-8.8c0.1-1.4,0.2-2.7,1.4-3.6c4.5-3,6.7-7.9,9.4-12.2c4.9-7.9,9.4-16.1,14.6-23.9c4.2-6.3,10.4-9.7,16.9-12.6
		c7.2-3.2,14.6-6.1,22.4-7.4c8.6-1.5,17.2-2.9,25.9-3.8c8.9-0.9,17.8-0.5,26.7-1.2c5.1-0.4,10.4,0.2,15.6,0.6c5,0.4,10,1.1,15.1,1.4
		c4.6,0.3,8.6,2.4,12.5,4.3c7.9,3.8,16.2,6.7,23.7,11.4c6.2,3.9,12.3,7.6,17.2,13.2c2.3,2.7,4.9,5.2,7.6,7.5
		c6,5.2,8.8,12.3,11.6,19.3c4.1,10.1,6.4,20.7,8.7,31.3c2.1,9.8,0.6,19.5-0.6,29.2c-0.7,5.6-1.9,11.1-2.3,16.7
		c-0.4,4.9-3.5,8.4-5.5,12.4c-1.8,3.7-4.3,7.1-6.5,10.6c-1.6,2.6-1.5,2.9,1.1,4.4c3.1,1.7,3.1,2.7,0.3,4.5c-0.7,0.5-1.6,1-2.4,1.1
		c-4.1,0.4-6.7,3.3-9.7,5.7c-12.9,9.9-26.5,18.4-42.9,21.6C265.6,409.4,255.1,410.4,246.1,409.7z"/>
	<path d="M331.3,97.5c-0.4,11.9-0.7,23.7-1.1,35.6c-0.1,2.4-0.6,4.7-1.4,6.9c-1.3,3.6-2.5,7.3-3.5,11c-1.9,7.2-6.2,12.7-11.7,17.5
		c-2.9,2.5-5.9,5-8,8.3c-0.3,0.5-0.8,1.2-1.2,1.2c-5.1,0.7-7.7,5.3-11.9,7.4c-3.3,1.7-6.2,4.1-9.1,6.3c-3.6,2.7-7.8,3.7-11.9,4.6
		c-8,1.7-16.1,2.6-23.9,5.1c-2.8,0.9-5.8,1.1-8.8,1.1c-8.5,0.1-16.9,0.6-25.3,1.7c-8.1,1.1-16-0.8-23.9-1.7
		c-12.5-1.4-22.9-7.7-33.6-13.6c-0.4-0.2-0.7-0.6-1.1-0.7c-7.5-2-11.4-8.1-15.5-13.9c-8.5-12-15.2-24.8-17.9-39.4
		c-1.1-6.1-2.3-12.2-2.4-18.5c0-3.8-0.7-7.7-0.9-11.5c-0.4-6.9,1.1-13.6,1-20.4c0-2.8,0.1-5.7-0.1-8.5c-0.4-4.2,0.9-8,2.4-11.6
		c2.2-5.2,3.8-10.6,6.3-15.6c3.9-7.8,9.4-13.9,16.6-18.6c8.3-5.5,17.2-10,25.9-14.7c6.7-3.6,14-5.7,21.2-7.8
		c11.6-3.4,23.5-4.8,35.4-6.1c0.4,0,0.9,0,1.3-0.2c6.6-2.3,13.2-0.9,19.8,0.1c6.7,1,13.6,1.6,20.4,2.3c2.3,0.2,4.1,1.1,6.1,2.4
		c5.9,3.7,11.3,8.2,17.5,11.4c5.9,3,10.9,7.2,16.1,11.1c2.9,2.2,5.7,5.1,6.9,8.9c0.2,0.7,0.4,1.5,0.8,2.1c6,8.4,7.9,18.5,11.8,27.8
		c2.9,7,3.4,14.4,3.7,21.8C331.4,91.8,331.3,94.7,331.3,97.5C331.3,97.5,331.3,97.5,331.3,97.5z"/>
	<path d="M432.8,55.4c1.4,16.4,0.8,34.1,1.6,51.8c0.7,14.7,1,29.4,1.2,44.1c0.2,23.2,1,46.3,1,69.5c0,21.1,0.3,42.2,0.9,63.2
		c0.4,14,0.3,27.9,0.9,41.9c0.6,13.9,0.2,27.9,1.3,41.8c0.3,3.5,0.3,7.1-0.3,10.7c-0.4,2.1,0.5,4.1,0.5,6.2
		c0.3,6.8,0.4,13.6,0.4,20.5c0,3.4-1.5,4.7-5,4.8c-24.1,0.5-48.1,1.1-72.2,1.6c-1.8,0-3.6,0-5.3,0c-3.8-0.1-4.1-0.4-4.3-4.1
		c-0.1-1.8,0-3.6-0.1-5.3c-0.8-20.9-0.3-41.9,0.3-62.8c0.6-21.7,0.4-43.4,0.3-65c0-8.7,0.3-17.5,0-26.2c-0.5-15.3-0.3-30.6-1.9-45.8
		c-0.9-8.7-1.5-17.5-2-26.2c-0.9-16-2.6-32-4.2-47.9c-0.6-6.5-1-13-1.4-19.5c-0.8-13.5-1.6-27-2.4-40.4c-0.1-0.9-0.2-1.8-0.2-2.7
		c0.3-11.7-0.9-23.4-1.2-35.2c-0.2-5.3-0.8-10.7-1.2-16c-0.1-1.5-0.3-3-0.3-4.4c0.1-3.2,1.3-4.5,4.6-4.7c4.3-0.3,8.6-0.6,12.9-0.8
		c17.8-0.7,35.6-1.4,53.4-2.2c5.8-0.3,11.5-1,17.3-1.4c4.4-0.3,4.9,0.1,4.9,4.5C432.8,21.5,432.8,37.8,432.8,55.4z"/>
</g>
</svg>
