<?xml version="1.0" encoding="utf-8"?>
<!-- Generator: Adobe Illustrator 22.0.1, SVG Export Plug-In . SVG Version: 6.00 Build 0)  -->
<svg version="1.1" id="Layer_1" xmlns="http://www.w3.org/2000/svg" xmlns:xlink="http://www.w3.org/1999/xlink" x="0px" y="0px"
	 viewBox="0 0 100 100" style="enable-background:new 0 0 100 100;" xml:space="preserve">
<style type="text/css">
	.st0{fill:#93D7EC;}
</style>
<path class="st0" d="M55.8,46.7c0.1,1.6,0.1,2.7,0.1,3.3c0,0.5,0,1.7-0.1,3.4c-0.1,3.4-1.8,5.1-5.1,5.1h-4.1v-17h3.9
	c1.6,0,2.9,0.4,3.8,1.3C55.2,43.7,55.7,45,55.8,46.7z M27.5,42.2c-0.7-0.6-1.6-0.9-2.7-0.9h-4.7v7.1h4.7c1.1,0,2-0.3,2.7-0.9
	c0.7-0.6,1-1.5,1-2.7C28.6,43.6,28.2,42.7,27.5,42.2z M100,15v70c0,8.3-6.7,15-15,15H15c-8.3,0-15-6.7-15-15V15C0,6.7,6.7,0,15,0h70
	C93.3,0,100,6.7,100,15z M35.7,44.8c0-3.4-0.9-6-2.8-7.8c-1.9-1.8-4.5-2.7-7.9-2.7H14c-0.3,0-0.5,0.1-0.7,0.4
	c-0.2,0.2-0.3,0.5-0.3,0.8v28.8c0,0.3,0.1,0.6,0.3,0.8c0.2,0.2,0.4,0.4,0.7,0.4h5c0.3,0,0.5-0.1,0.7-0.4c0.2-0.2,0.3-0.5,0.3-0.8
	v-9.1h5c3.3,0,6-0.9,7.9-2.7C34.8,50.8,35.7,48.2,35.7,44.8z M63,50c0-0.5,0-1.5-0.1-3.2c-0.1-2.4-0.6-4.6-1.7-6.5
	c-1-1.9-2.5-3.4-4.3-4.4c-1.8-1.1-3.9-1.6-6.2-1.6H40.5c-0.3,0-0.5,0.1-0.7,0.4c-0.2,0.2-0.3,0.5-0.3,0.8v28.8
	c0,0.3,0.1,0.6,0.3,0.8c0.2,0.2,0.4,0.4,0.7,0.4h10.4c2.3,0,4.4-0.5,6.2-1.6s3.2-2.5,4.2-4.4s1.6-4,1.6-6.5C62.9,51.6,63,50.5,63,50
	z M87.1,35.6c0-0.3-0.1-0.6-0.3-0.8c-0.2-0.2-0.5-0.4-0.7-0.4H68.4c-0.3,0-0.5,0.1-0.7,0.4c-0.2,0.2-0.3,0.5-0.3,0.8v28.8
	c0,0.3,0.1,0.6,0.3,0.8c0.2,0.2,0.4,0.4,0.7,0.4h5.1c0.3,0,0.5-0.1,0.7-0.4c0.2-0.2,0.3-0.5,0.3-0.8v-9.6h10.8
	c0.3,0,0.5-0.1,0.7-0.4c0.2-0.2,0.3-0.5,0.3-0.8v-4.7c0-0.3-0.1-0.6-0.3-0.8c-0.2-0.2-0.5-0.4-0.7-0.4H74.5v-6.1H86
	c0.3,0,0.5-0.1,0.7-0.4c0.2-0.2,0.3-0.5,0.3-0.8L87.1,35.6L87.1,35.6z"/>
</svg>
